<svg xmlns="http://www.w3.org/2000/svg" viewBox="0 0 68 68">
  <g fill="currentColor">
    <path d="M128,128z M0,0z M18,39C24.69,39.12 31.39,38.76 38.09,39.05 42.48,39.12 45.99,42.14 49.04,44.97 55.33,51.03 59.78,58.74 63.36,66.63 65.67,71.72 67.43,77.05 70.02,82 71.23,84.26 72.86,86.71 75.56,87.24 80.59,88.33 85.83,88.17 90.92,87.64 95.95,87.07 101.28,83.33 101.59,77.91 102.07,72.7 102.03,67.43 101.49,62.23 101.05,59.28 100.52,55.96 98.19,53.87 93.17,52.66 87.92,53.54 82.81,53.18 80.94,57.4 79.12,62.79 82.45,66.8 85.64,67.37 87.76,64.62 89.86,62.75 91.18,64.36 93.09,65.84 93.17,68.1 93.35,71.18 92.5,75.07 89.39,76.44 86.08,77.67 82.43,77.58 78.99,77.09 75.82,76.64 72.58,74.74 71.59,71.54 70.4,67.48 70.69,63.19 70.58,59 70.66,55.48 70.34,51.85 71.35,48.43 72.78,45.04 76.71,43.75 80.1,43.42 86.41,42.86 92.76,43.14 99.08,43.15 101.76,43.35 104.87,43.05 107.06,44.91 109.88,47.5 111.07,51.39 111.51,55.09 112.07,60.38 111.92,65.72 111.86,71.03 111.7,76.73 111.62,82.53 109.93,88.02 108.66,92.19 105.7,95.98 101.56,97.59 96.89,99.38 91.8,99.44 86.86,99.65 79.74,99.76 72.4,99.87 65.58,97.55 61.63,96.28 59.86,92.18 58.22,88.73 53.88,78.67 50.32,68.11 43.82,59.16 41.16,55.51 38.28,51.33 33.62,50.19 28.51,48.97 23.21,49.36 18.01,49.21 18.01,45.8 18,42.4 18,39z"/>
  </g>
</svg>
