<svg xmlns="http://www.w3.org/2000/svg" viewBox="0 0 68 68">
  <g fill="currentColor">
    <path d="M1440,1320z M0,0z M1375,858C1378,834 1384,762 1386,698 1390,610 1395,580 1405,580 1424,580 1430,614 1430,733 1430,827 1427,846 1409,871 1379,913 1367,908 1375,858z"/>
    <path d="M1440,1320z M0,0z M115,228C119,215,134,194,148,181L175,156 178,189C182,228 166,250 133,250 112,250 110,246 115,228z"/>
    <path d="M1440,1320z M0,0z M550,997C550,932 602,890 684,890 723,890 730,893 735,913 739,926 759,944 783,956 817,973 826,983 828,1009 831,1039 830,1040 795,1040 753,1040 700,1015 700,996 700,972 663,971 641,994 629,1006 620,1022 620,1028 620,1035 605,1040 585,1040 550,1040 550,1040 550,997z"/>
    <path d="M1440,1320z M0,0z M1364,873C1368,846 1373,786 1376,738 1381,659 1384,650 1402,650 1421,650 1422,655 1417,748 1412,856 1410,865 1390,898 1367,933 1357,924 1364,873z"/>
    <path d="M1440,1320z M0,0z M400,545C400,531 396,520 390,520 379,520 377,449 386,401 392,373 396,370 427,370L462,370 455,435C451,479 452,500 459,500 465,500 470,516 470,535 470,568 468,570 435,570 404,570 400,567 400,545z"/>
    <path d="M1440,1320z M0,0z M900,505C900,472 902,470 935,470 968,470 970,472 970,505 970,538 968,540 935,540 902,540 900,538 900,505z"/>
    <path d="M1440,1320z M0,0z M900,420C900,381 901,380 935,380 969,380 970,381 970,420 970,459 969,460 935,460 901,460 900,459 900,420z"/>
    <path d="M1440,1320z M0,0z M107,251C110,240 121,224 131,214 141,205 150,192 150,186 151,167 260,90 307,76 326,70 330,72 330,92 330,110 321,121 295,133 275,142 253,150 245,150 237,150 230,156 230,163 230,179 188,220 173,220 166,220 160,230 158,243 156,258 147,266 128,268 106,271 102,268 107,251z"/>
    <path d="M1440,1320z M0,0z M430,36C430,23 458,10 488,10 494,10 500,19 500,30 500,46 493,50 465,50 442,50 430,45 430,36z"/>
    <path d="M1440,1320z M0,0z M100,951C95,940 90,918 90,901 90,872 92,870 130,870 174,870 190,888 190,939 190,968 188,970 150,970 121,970 108,965 100,951z"/>
    <path d="M1440,1320z M0,0z M1337,883C1328,875 1328,823 1336,793 1341,775 1350,770 1376,770 1407,770 1410,773 1410,799 1410,849 1390,890 1366,890 1353,890 1340,887 1337,883z"/>
    <path d="M1440,1320z M0,0z M310,355C310,322 312,320 345,320 378,320 380,322 380,355 380,388 378,390 345,390 312,390 310,388 310,355z"/>
    <path d="M1440,1320z M0,0z M210,207C210,156 223,140 266,140 301,140 310,156 310,218 310,250 310,250 260,250L210,250 210,207z"/>
    <path d="M1440,1320z M0,0z M390,105C390,72 392,70 425,70 458,70 460,72 460,105 460,138 458,140 425,140 392,140 390,138 390,105z"/>
    <path d="M1440,1320z M0,0z M560,996C560,937 597,904 674,895 734,887 762,893 803,922 825,938 830,949 830,986L830,1030 787,1030C764,1030 735,1023 723,1015 703,1001 698,1001 668,1020 650,1031 618,1040 598,1040L560,1040 560,996z M614,960L635,935 608,959C592,973 580,991 581,999 581,1013 582,1013 587,1000 590,992 602,974 614,960z"/>
    <path d="M1440,1320z M0,0z M397,553C388,545 388,397 396,376 403,357 460,354 478,372 490,384 495,515 484,544 478,560 411,567 397,553z"/>
    <path d="M1440,1320z M0,0z M906,538C898,508 898,431 906,391 912,361 915,359 954,362 994,365 995,366 1004,413 1008,439 1008,481 1004,508 995,554 994,555 954,558 918,561 912,558 906,538z"/>
    <path d="M1440,1320z M0,0z M368,1249C317,1223 310,1216 310,1190 310,1156 339,1143 392,1154 451,1166 470,1186 470,1235 470,1275 468,1280 448,1280 435,1279 399,1266 368,1249z"/>
    <path d="M1440,1320z M0,0z M317,413C308,404 308,338 318,324 330,305 367,290 399,290 428,290 430,292 430,329 430,382 399,420 356,420 338,420 320,417 317,413z"/>
    <path d="M1440,1320z M0,0z M242,228C235,221 230,201 230,184 230,120 319,65 413,72 453,75 455,76 458,111 461,143 457,151 428,171 410,184 389,200 382,207 375,214 360,220 350,220 340,220 328,225 325,230 316,244 257,243 242,228z M280,211C280,205 275,198 270,195 264,191 263,183 267,177 271,170 267,171 257,179 234,197 236,220 260,220 271,220 280,216 280,211z"/>
    <path d="M1440,1320z M0,0z M102,968C95,961 90,950 90,943 90,936 82,930 72,930 61,930 48,918 41,904 26,870 14,730 27,730 32,730 34,702 32,666 29,619 33,584 49,536 61,499 77,441 85,406 93,371 107,330 115,314 128,288 128,285 115,282 94,277 96,268 133,219L165,175 168,207C172,250 200,252 200,210 200,185 204,180 224,180 243,180 247,184 243,200 239,215 243,220 257,220 267,220 281,215 288,208 297,199 300,203 300,228 300,258 298,260 265,260 230,260 230,260 230,305 230,329 223,364 215,382 189,440 142,642 135,724 132,767 126,816 123,832 118,857 120,860 142,860 163,860 168,866 174,898 186,972 183,980 147,980 129,980 109,975 102,968z M150,920C144,909 135,900 129,900 123,900 123,907 130,920 136,931 145,940 151,940 157,940 157,933 150,920z"/>
    <path d="M1440,1320z M0,0z M1345,920C1334,903 1350,762 1366,732 1375,715 1380,672 1380,613 1380,540 1383,520 1394,520 1402,520 1411,532 1414,546 1426,591 1409,832 1391,880 1375,925 1357,940 1345,920z M1390,818C1390,808 1386,800 1381,800 1370,800 1359,840 1367,853 1374,865 1390,841 1390,818z"/>
    <path d="M1440,1320z M0,0z M386,538C383,525 380,489 380,458 380,406 382,400 401,400 420,400 421,404 416,436 412,456 414,487 421,507 432,541 434,542 446,525 459,507 460,508 460,533 460,557 456,560 426,560 400,560 391,555 386,538z"/>
    <path d="M1440,1320z M0,0z M900,515C900,473 924,467 934,506 939,523 946,530 955,526 964,523 970,527 970,535 970,545 959,550 935,550 902,550 900,548 900,515z"/>
    <path d="M1440,1320z M0,0z M200,145C207,137 224,124 239,117 253,109 288,91 315,76L365,49 368,71C372,96 356,110 323,110 309,110 300,116 300,125 300,133 291,140 280,140 269,140 260,145 260,150 260,156 244,160 224,160 193,160 189,158 200,145z"/>
    <path d="M1440,1320z M0,0z M1060,80C1060,67 1067,60 1078,60 1089,60 1105,69 1115,80 1133,100 1132,100 1097,100 1067,100 1060,96 1060,80z"/>
    <path d="M1440,1320z M0,0z M440,36C440,23 468,10 498,10 504,10 510,19 510,30 510,46 503,50 475,50 452,50 440,45 440,36z"/>
    <path d="M1440,1320z M0,0z M740,26C740,8 762,0 789,7 824,16 814,40 775,40 752,40 740,35 740,26z"/>
    <path d="M1440,1320z M0,0z M748,1033C732,1031 720,1024 720,1019 720,1014 713,1010 705,1010 698,1010 686,1002 681,993 672,978 671,979 670,1003 670,1027 666,1030 635,1030 595,1030 589,1016 623,999 635,993 657,977 671,964L697,940 716,961C755,1005 818,1022 803,985 800,975 805,970 819,970 836,970 840,976 840,1005 840,1038 838,1040 808,1039 790,1038 763,1035 748,1033z"/>
    <path d="M1440,1320z M0,0z M98,975C11,927 -8,707 54,470 101,291 111,268 153,227 181,200 189,186 181,180 161,168 217,128 332,71 414,30 449,18 503,13L570,7 570,40C570,81 547,99 498,100 467,100 460,96 460,80 460,67 455,62 445,66 437,70 430,78 430,84 430,96 362,116 287,127 255,131 249,136 251,154 253,165 248,185 242,198 223,231 254,240 286,210L310,187 310,222C310,251 303,263 276,283 257,298 240,321 237,337 234,352 223,390 212,420 153,584 133,775 167,848 176,869 188,888 193,891 197,894 200,917 198,941 195,983 194,985 160,987 141,989 113,983 98,975z M148,915C142,901 133,890 128,890 116,890 118,924 132,938 150,956 160,942 148,915z M90,868C90,741 149,425 187,348 212,296 195,242 169,291 148,328 122,399 116,433 112,453 98,505 85,547 58,630 54,675 70,685 85,694 82,737 65,754 50,768 50,802 66,878 73,912 90,904 90,868z"/>
    <path d="M1440,1320z M0,0z M600,930C600,896 613,890 696,890 757,890 760,891 760,914 760,936 758,937 719,926 684,917 673,918 639,937L600,958 600,930z"/>
    <path d="M1440,1320z M0,0z M1330,899C1330,848 1333,839 1347,842 1373,847 1384,905 1364,935 1339,974 1330,965 1330,899z"/>
    <path d="M1440,1320z M0,0z M1340,796C1340,777 1345,760 1350,758 1356,756 1364,729 1367,697 1372,650 1376,640 1391,640 1419,640 1416,717 1388,780 1361,838 1340,845 1340,796z"/>
    <path d="M1440,1320z M0,0z M910,535C910,496 916,492 936,518 949,534 951,534 965,516 979,497 980,498 980,533 980,569 979,570 945,570 912,570 910,568 910,535z"/>
    <path d="M1440,1320z M0,0z M420,539C420,534 425,532 431,535 436,539 446,528 453,511 469,469 490,471 490,515 490,548 488,550 455,550 436,550 420,545 420,539z"/>
    <path d="M1440,1320z M0,0z M900,405C900,372 902,370 935,370 959,370 970,375 970,385 970,393 964,397 955,394 946,390 939,397 934,414 924,453 900,447 900,405z"/>
    <path d="M1440,1320z M0,0z M300,370C300,331 301,330 337,330 370,330 372,331 355,344 336,358 341,397 360,385 365,382 370,386 370,394 370,406 360,410 335,410 301,410 300,409 300,370z"/>
    <path d="M1440,1320z M0,0z M1062,101C1054,97,1050,83,1052,71L1055,50 1098,71C1121,83 1140,96 1140,101 1140,112 1079,113 1062,101z"/>
    <path d="M1440,1320z M0,0z M733,35C727,17 729,13 750,10 790,4 810,11 810,30 810,46 803,50 775,50 752,50 737,44 733,35z"/>
    <path d="M1440,1320z M0,0z M455,1284C444,1281 404,1265 367,1248 303,1218 299,1214 302,1185 305,1157 308,1155 354,1152 410,1148 454,1164 475,1194 490,1215 496,1291 483,1289 478,1288 466,1286 455,1284z M440,1236C440,1208 373,1175 349,1191 338,1199 340,1205 363,1225 393,1252 440,1259 440,1236z"/>
    <path d="M1440,1320z M0,0z M120,960C120,942 123,941 140,950 151,956 160,959 161,958 167,934 166,921 159,926 154,929 149,926 149,921 146,900 145,895 137,883 131,874 136,870 154,870 185,870 202,899 198,943 195,972 192,975 158,978 125,981 120,978 120,960z"/>
    <path d="M1440,1320z M0,0z M1327,893C1318,885 1318,817 1326,796 1329,787 1343,780 1356,780 1373,780 1378,784 1374,795 1370,804 1366,825 1365,843 1363,861 1362,881 1361,888 1360,901 1338,905 1327,893z"/>
    <path d="M1440,1320z M0,0z M310,385C310,366 315,350 320,350 326,350 330,339 330,326 330,296 368,270 411,270 441,270 442,271 438,310 435,343 438,350 452,350 465,350 470,358 470,380 470,410 456,421 446,398 443,388 437,390 427,403 407,427 400,424 400,395 400,381 396,370 390,370 385,370 380,381 380,395 380,417 376,420 345,420 312,420 310,418 310,385z M400,329C400,318 344,345 334,361 331,367 334,376 341,381 351,387 362,382 378,364 390,350 400,335 400,329z"/>
    <path d="M1440,1320z M0,0z M279,221C305,185 350,173 350,203 350,229 322,249 287,250L259,250 279,221z"/>
    <path d="M1440,1320z M0,0z M210,186C210,158 217,146 243,127 299,84 342,68 407,62L470,57 470,94C470,126 467,130 445,130 429,130 422,126 426,116 432,101 393,87 384,101 381,106 370,110 360,110 349,110 311,135 275,165L210,221 210,186z"/>
    <path d="M1440,1320z M0,0z M480,65C480,22,500,10,569,10L620,10 620,44C620,73 616,80 589,89 571,95 540,100 519,100 481,100 480,99 480,65z"/>
    <path d="M1440,1320z M0,0z M1083,903C1075,901,1070,881,1070,859L1070,819 1118,822 1165,825 1168,868 1171,910 1133,909C1112,909,1089,906,1083,903z"/>
    <path d="M1440,1320z M0,0z M630,791C625,780 620,753 620,731 620,696 624,688 650,675 680,659 717,656 744,666 766,674 765,753 744,785 723,818 647,821 630,791z"/>
    <path d="M1440,1320z M0,0z M330,400C330,388 335,383 343,386 359,392 385,365 400,326 412,294 410,295 351,345L326,365 348,336C360,320 370,301 370,294 370,271 447,276 460,299 481,338 466,424 445,389 440,382 433,386 423,399 403,428 330,429 330,400z"/>
    <path d="M1440,1320z M0,0z M1236,395C1227,381,1220,350,1220,320L1220,270 1256,270C1287,270 1293,274 1306,305 1313,324 1320,358 1320,380 1320,419 1319,420 1286,420 1261,420 1248,414 1236,395z"/>
    <path d="M1440,1320z M0,0z M462,188L465,135 509,132C558,128 570,138 570,186 570,227 554,240 502,240L459,240 462,188z"/>
    <path d="M1440,1320z M0,0z M310,210C310,205 320,195 333,189 345,182 357,174 360,171 363,168 382,152 403,137L440,109 440,142C440,168 433,180 407,198 374,220 310,228 310,210z"/>
    <path d="M1440,1320z M0,0z M455,1284C444,1281 400,1263 358,1243 284,1208 280,1204 280,1173L280,1140 340,1140C409,1140 450,1156 450,1182 450,1193 457,1200 469,1200 490,1200 500,1219 500,1261 500,1290 496,1292 455,1284z M460,1250C460,1232 413,1191 386,1184 354,1176 327,1186 332,1203 344,1238 460,1281 460,1250z"/>
    <path d="M1440,1320z M0,0z M970,1257C970,1231 986,1220 1026,1220 1041,1220 1050,1214 1050,1205 1050,1195 1061,1190 1085,1190 1104,1190 1120,1194 1120,1199 1120,1209 1028,1263 993,1274 973,1280 970,1278 970,1257z"/>
    <path d="M1440,1320z M0,0z M170,1055C153,1030 125,1003 109,994 75,977 48,925 24,832 0,743 14,523 47,460 54,446 60,427 60,418 60,408 66,383 74,363 82,342 91,312 95,296 104,256 197,160 227,160 247,160 250,156 245,140 240,124 252,114 322,79 372,54 406,42 408,49 413,65 450,63 450,47 450,26 495,10 550,10 599,10 600,11 600,40 600,57 596,70 590,70 585,70 580,76 580,84 580,93 563,100 531,105 503,109 479,118 476,126 473,134 457,140 440,140 410,140 410,140 426,115 441,91 441,90 423,90 381,90 310,123 274,159 139,291 139,292 84,500 62,583 55,632 52,732 48,879 56,903 119,938 154,958 161,959 166,946 169,938 162,917 151,901 107,839 104,713 141,540 153,488 171,420 182,390 193,360 204,323 207,308 212,279 291,207 334,190 357,182 360,183 360,201 360,221 315,269 295,270 280,271 255,310 240,355 233,377 224,400 220,405 211,418 193,492 184,550 181,575 174,603 169,612 155,638 156,813 169,839 176,851 190,860 205,860 222,860 237,871 255,897 281,936 285,970 274,1054 268,1098 266,1100 234,1100 206,1100 196,1093 170,1055z M559,59C576,53 590,44 590,39 590,28 545,37 510,56 487,68 487,69 506,70 518,70 541,65 559,59z"/>
    <path d="M1440,1320z M0,0z M1260,1050C1260,1025 1264,1020 1285,1020 1315,1020 1316,1030 1291,1058 1266,1087 1260,1086 1260,1050z"/>
    <path d="M1440,1320z M0,0z M700,985L700,951 726,975C741,989 757,1000 761,1000 766,1000 770,1005 770,1010 770,1016 754,1020 735,1020 702,1020 700,1018 700,985z"/>
    <path d="M1440,1320z M0,0z M570,955C570,921,571,920,607,920L644,920 610,955C591,974 575,990 573,990 571,990 570,974 570,955z"/>
    <path d="M1440,1320z M0,0z M1315,898C1322,794 1352,710 1383,710 1407,710 1404,737 1374,793 1357,825 1351,848 1356,863 1367,898 1363,937 1345,964 1315,1009 1309,994 1315,898z"/>
    <path d="M1440,1320z M0,0z M1370,660C1370,627 1373,620 1390,620 1411,620 1415,636 1404,678 1393,717 1370,705 1370,660z"/>
    <path d="M1440,1320z M0,0z M1366,533C1349,405 1348,390 1360,390 1377,390 1398,448 1406,518 1412,576 1411,580 1392,580 1376,580 1371,571 1366,533z"/>
    <path d="M1440,1320z M0,0z M380,505C380,483 385,470 393,470 401,470 411,486 417,505 428,538 427,540 404,540 383,540 380,535 380,505z"/>
    <path d="M1440,1320z M0,0z M380,445C380,435 370,430 350,430 327,430 320,426 320,410 320,399 316,390 310,390 305,390 300,374 300,356 300,328 307,316 333,296 353,281 380,270 398,270 426,270 430,273 430,296 430,317 427,320 417,311 396,294 320,363 338,381 348,392 359,391 399,377 461,355 460,355 460,387 460,412 459,413 446,395 433,377 431,378 419,418 407,458 380,477 380,445z"/>
    <path d="M1440,1320z M0,0z M610,30C610,13 617,10 655,10 693,10 700,13 700,30 700,47 693,50 655,50 617,50 610,47 610,30z"/>
    <path d="M1440,1320z M0,0z M730,31C730,15 737,12 775,12 813,12 820,15 820,31 820,47 813,50 775,50 737,50 730,47 730,31z"/>
    <path d="M1440,1320z M0,0z M580,1026C580,1018 593,1009 609,1005 625,1002 648,988 660,974 688,946 698,944 715,967 726,981 725,987 711,997 702,1004 685,1010 673,1010 659,1010 650,1016 650,1025 650,1035 639,1040 615,1040 591,1040 580,1035 580,1026z"/>
    <path d="M1440,1320z M0,0z M740,1016C740,993 742,992 771,1002 787,1008 803,1010 806,1007 816,997 790,961 760,943 721,920 722,910 765,910 793,910 800,914 800,930 800,943 807,950 820,950 836,950 840,957 840,985 840,1009 835,1020 825,1020 817,1020 810,1025 810,1030 810,1036 794,1040 775,1040 745,1040 740,1037 740,1016z"/>
    <path d="M1440,1320z M0,0z M560,965C560,931,561,930,596,930L633,930 606,956C592,971 580,987 580,991 580,996 576,1000 570,1000 565,1000 560,984 560,965z"/>
    <path d="M1440,1320z M0,0z M47,901C28,869 25,840 40,840 46,840 50,847 50,855 50,864 57,884 65,900 85,939 70,939 47,901z"/>
    <path d="M1440,1320z M0,0z M20,811C5,782 8,750 25,750 33,750 40,758 40,768 40,777 43,795 46,808 54,835 35,838 20,811z"/>
    <path d="M1440,1320z M0,0z M130,805C130,797 126,790 121,790 116,790 114,781 117,770 126,735 150,746 150,785 150,804 146,820 140,820 135,820 130,813 130,805z"/>
    <path d="M1440,1320z M0,0z M410,538C410,509 411,508 424,525 437,543 438,543 451,522 471,491 480,495 480,535 480,568 478,570 445,570 412,570 410,568 410,538z"/>
    <path d="M1440,1320z M0,0z M920,540C920,520 915,510 905,510 894,510 890,498 890,460 890,417 893,410 910,410 927,410 930,417 930,463 930,491 934,521 939,528 953,552 972,514 972,460 972,418 975,410 991,410 1007,410 1010,418 1010,465 1010,495 1006,520 1000,520 995,520 990,531 990,545 990,567 986,570 955,570 923,570 920,568 920,540z"/>
    <path d="M1440,1320z M0,0z M1370,520C1370,491 1374,480 1385,480 1400,480 1401,483 1404,533 1405,553 1401,560 1388,560 1374,560 1370,552 1370,520z"/>
    <path d="M1440,1320z M0,0z M163,453C164,443 169,429 173,423 178,416 179,410 175,410 172,410 174,401 180,390 203,346 220,387 204,448 196,475 159,479 163,453z"/>
    <path d="M1440,1320z M0,0z M214,301C214,291 222,277 232,271 248,261 250,264 250,290 250,312 245,320 232,320 221,320 214,313 214,301z"/>
    <path d="M1440,1320z M0,0z M97,283C119,222 205,133 264,111 286,102 290,103 290,119 290,135 261,170 248,170 239,170 160,252 160,261 160,266 156,270 150,270 145,270 140,277 140,285 140,294 131,300 115,300 96,300 92,296 97,283z"/>
    <path d="M1440,1320z M0,0z M360,71C360,56 445,21 499,14 542,9 550,10 550,23 550,35 533,43 490,52 457,58 430,68 430,72 430,76 414,80 395,80 376,80 360,76 360,71z"/>
    <path d="M1440,1320z M0,0z M1072,908C1066,902,1060,877,1060,853L1060,810 1109,810C1167,810 1182,824 1178,877 1175,914 1174,915 1130,918 1104,920 1080,916 1072,908z M1140,870C1140,857 1112,845 1102,854 1099,858 1102,865 1110,870 1130,883 1140,882 1140,870z"/>
    <path d="M1440,1320z M0,0z M611,796C594,778 589,763 592,734 595,701 600,693 630,678 676,656 756,654 764,676 781,720 763,790 735,790 727,790 720,797 720,805 720,831 638,825 611,796z M714,755C746,707 727,682 678,707 648,722 645,731 660,761 674,787 694,785 714,755z"/>
    <path d="M1440,1320z M0,0z M1235,411C1216,380,1210,357,1210,315L1210,260 1251,260C1289,260 1292,262 1312,308 1324,334 1334,375 1334,400 1335,445 1335,445 1298,448 1264,451 1259,448 1235,411z M1274,333C1259,300 1256,298 1253,317 1249,340 1281,401 1288,382 1289,377 1283,355 1274,333z"/>
    <path d="M1440,1320z M0,0z M350,410C350,404 370,391 395,380 420,369 440,357 440,353 440,334 407,299 394,304 385,307 380,302 380,290 380,274 387,270 413,270 459,270 470,285 470,347 470,401 464,410 442,388 432,378 428,380 424,398 419,415 410,420 384,420 365,420 350,415 350,410z"/>
    <path d="M1440,1320z M0,0z M1017,382C995,358 995,304 1016,296 1025,293 1050,290 1071,290L1111,290 1108,343C1105,395 1105,395 1069,398 1045,400 1029,395 1017,382z"/>
    <path d="M1440,1320z M0,0z M442,215C444,190 444,170 443,170 442,170 430,181 416,195 399,212 380,220 355,220 313,220 310,206 348,186 364,178 395,152 418,128 452,93 460,89 460,105 460,122 467,125 512,125L565,125 568,177C571,221 568,230 548,244 536,253 506,260 482,260L438,260 442,215z M528,197C542,180 526,155 506,163 486,171 485,210 504,210 511,210 522,204 528,197z"/>
    <path d="M1440,1320z M0,0z M470,1271C470,1226,398,1170,340,1170L308,1170 329,1205 349,1240 297,1214C242,1186 199,1143 179,1098 173,1083 164,1072 160,1075 150,1081 116,1043 91,996 46,916 4,770 25,770 39,770 50,801 50,845 50,888 83,936 129,960 152,971 183,1000 202,1027L235,1075 243,1022C251,973 249,965 225,929 203,895 196,891 184,901 168,914 164,911 141,870 117,827 121,664 149,535 177,410 183,384 190,375 194,370 204,345 211,322 221,288 237,267 279,233L335,187 338,215C341,238 333,250 296,282 270,305 250,330 250,341 250,352 239,385 226,413 205,460 190,545 173,708L168,760 208,760 249,760 255,808C258,834 265,869 271,885 278,902 288,938 294,967 309,1036 342,1070 392,1070 429,1070 430,1071 430,1104 430,1129 436,1142 455,1154 486,1174 530,1242 530,1270 530,1286 523,1290 500,1290 477,1290 470,1285 470,1271z"/>
    <path d="M1440,1320z M0,0z M940,1265C940,1247 954,1235 1009,1206 1079,1170 1156,1156 1148,1182 1143,1195 999,1273 961,1283 944,1287 940,1284 940,1265z"/>
    <path d="M1440,1320z M0,0z M1230,1092C1230,1072 1242,1041 1264,1007 1283,979 1301,940 1305,923 1310,899 1317,890 1331,890 1374,890 1336,1008 1267,1085L1231,1125 1230,1092z"/>
    <path d="M1440,1320z M0,0z M540,1001C540,962 549,940 566,940 574,940 580,933 580,925 580,917 585,910 591,910 597,910 608,903 616,895 626,885 651,880 686,880 736,880 740,882 740,903 740,923 736,926 710,922 668,916 638,925 607,954 577,981 571,1010 595,1010 603,1010 610,1015 610,1020 610,1026 594,1030 575,1030 543,1030 540,1028 540,1001z"/>
    <path d="M1440,1320z M0,0z M620,1013C620,1008,636,995,655,982L690,960 690,990C690,1018 687,1020 655,1020 636,1020 620,1017 620,1013z"/>
    <path d="M1440,1320z M0,0z M1330,797C1330,777 1335,760 1341,758 1361,751 1373,607 1360,533 1340,424 1337,370 1349,370 1355,370 1364,380 1369,393 1397,465 1405,514 1404,617 1403,716 1400,734 1378,776 1347,836 1330,843 1330,797z"/>
    <path d="M1440,1320z M0,0z M580,765C580,723 602,718 631,753 659,787 655,800 615,800 582,800 580,798 580,765z"/>
    <path d="M1440,1320z M0,0z M18,588C13,553 67,352 101,283 151,180 242,110 415,43 474,20 503,16 605,13 741,9 790,15 790,34 790,44 765,50 703,54 654,58 599,63 580,66 548,70 547,69 568,59 599,42 596,26 563,34 517,45 480,62 485,70 487,74 501,75 515,72 535,69 540,72 540,88 540,103 531,109 503,114 439,124 426,122 440,105 451,92 448,90 425,90 359,90 316,114 229,198 181,243 138,293 132,308 113,362 91,436 85,467 81,485 74,502 69,505 64,509 60,522 60,535 60,548 56,562 50,565 45,568 40,580 40,591 40,618 22,615 18,588z"/>
    <path d="M1440,1320z M0,0z M458,495C461,469 467,460 481,460 496,460 500,467 500,495 500,525 497,530 477,530 457,530 454,526 458,495z"/>
    <path d="M1440,1320z M0,0z M307,423C303,420 300,402 300,383 300,345 320,338 335,373 341,386 352,394 363,392 374,390 380,396 380,410 380,426 374,430 347,430 328,430 310,427 307,423z"/>
    <path d="M1440,1320z M0,0z M340,311C340,276 362,260 409,260 437,260 440,263 440,290 440,317 438,319 421,308 406,299 397,301 371,319L340,341 340,311z"/>
    <path d="M1440,1320z M0,0z M1100,105C1100,75 1103,75 1141,97 1179,120 1178,130 1135,130 1104,130 1100,127 1100,105z"/>
    <path d="M1440,1320z M0,0z M1020,70C1020,48 1040,44 1071,60 1101,76 1094,90 1055,90 1027,90 1020,86 1020,70z"/>
    <path d="M1440,1320z M0,0z M797,975C787,961 761,941 739,930 693,906 689,890 729,890 768,890 790,899 790,916 790,924 799,930 810,930 826,930 830,937 830,965 830,1006 822,1009 797,975z"/>
    <path d="M1440,1320z M0,0z M16,788C6,750 9,730 25,730 36,730 40,741 40,770 40,813 26,824 16,788z"/>
    <path d="M1440,1320z M0,0z M18,583C12,555 20,530 36,530 44,530 50,539 50,550 50,561 46,570 40,570 35,570 33,577 36,585 40,593 38,600 32,600 27,600 20,592 18,583z"/>
    <path d="M1440,1320z M0,0z M420,545C420,537 426,533 434,536 452,543 464,507 461,455 458,407 443,377 428,386 421,390 420,389 424,382 428,375 444,370 459,370 480,370 489,376 494,393 502,422 502,489 494,529 488,556 484,560 454,560 431,560 420,555 420,545z"/>
    <path d="M1440,1320z M0,0z M930,540C930,527 923,520 910,520 892,520 890,513 890,460 890,427 894,400 900,400 906,400 910,389 910,375 910,353 914,350 949,350 971,350 992,355 995,361 1006,378 1013,485 1006,524 1000,557 996,560 965,560 937,560 930,556 930,540z M970,502C984,459 971,395 950,395 929,395 918,454 930,500 943,550 956,551 970,502z"/>
    <path d="M1440,1320z M0,0z M100,284C100,272 134,220 142,220 151,220 153,252 144,274 138,289 100,297 100,284z"/>
    <path d="M1440,1320z M0,0z M1063,108C1049,101 1040,88 1040,74 1040,53 1043,51 1067,61 1105,75 1150,103 1150,112 1150,124 1089,120 1063,108z"/>
    <path d="M1440,1320z M0,0z M316,92C344,65 370,58 370,76 370,84 358,95 344,100 305,115 294,112 316,92z"/>
    <path d="M1440,1320z M0,0z M390,59C390,44 447,23 513,15 589,6 587,22 508,49 441,72 390,76 390,59z"/>
    <path d="M1440,1320z M0,0z M1090,900C1090,884 1086,870 1080,870 1075,870 1070,854 1070,835 1070,796 1088,786 1156,792L1195,795 1194,848C1192,913 1179,930 1129,930 1092,930 1090,928 1090,900z M1145,880C1154,865 1131,840 1109,840 1088,840 1084,860 1102,878 1117,893 1137,893 1145,880z"/>
    <path d="M1440,1320z M0,0z M660,806C660,794 650,790 625,790 592,790 590,788 590,755 590,731 595,720 605,720 614,720 620,711 620,696 620,666 657,655 725,665L770,672 770,721C770,748 767,770 762,770 758,770 750,780 745,793 733,821 660,832 660,806z M714,759C743,725 744,721 731,701 723,688 716,688 681,700 621,719 612,735 640,765 670,797 683,796 714,759z"/>
    <path d="M1440,1320z M0,0z M1257,453C1253,450 1250,437 1250,424 1250,411 1242,400 1230,397 1201,389 1186,349 1194,296 1201,250 1201,250 1241,250 1269,250 1280,254 1280,265 1280,273 1286,280 1294,280 1313,280 1340,362 1340,417L1340,460 1302,460C1281,460,1260,457,1257,453z M1295,370C1276,317 1261,290 1250,290 1231,290 1240,341 1265,381 1297,430 1314,424 1295,370z"/>
    <path d="M1440,1320z M0,0z M330,413C330,401 338,395 355,394 402,391 440,369 440,345 440,322 408,285 397,297 393,300 390,296 390,287 390,275 399,270 420,270L449,270 443,220C438,174 439,170 459,170 476,170 480,164 480,140 480,112 482,110 519,110 567,110 590,136 590,191 590,223 585,232 556,249 538,261 508,270 489,270 463,270 459,273 468,282 481,295 485,392 473,403 470,407 458,403 449,394 432,378 430,379 423,396 414,422 400,430 363,430 338,430 330,426 330,413z M518,214C544,196 547,162 524,153 505,146 485,166 476,203 469,234 483,239 518,214z"/>
    <path d="M1440,1320z M0,0z M1040,401C1040,395 1034,390 1026,390 1010,390 1000,360 1000,309 1000,268 1011,260 1065,260 1116,260 1131,282 1128,349L1125,405 1083,408C1057,410,1040,407,1040,401z M1077,340C1076,319 1071,316 1045,326 1030,332 1031,334 1046,351 1066,373 1079,368 1077,340z"/>
    <path d="M1440,1320z M0,0z M992,168C985,161 980,139 980,118 980,81 981,80 1015,80 1068,80 1100,105 1100,146 1100,180 1100,180 1052,180 1026,180 999,175 992,168z"/>
    <path d="M1440,1320z M0,0z M470,1275C469,1264 467,1245 466,1232 464,1214 468,1210 484,1212 501,1214 506,1223 508,1255 510,1290 509,1292 498,1275 487,1256 487,1256 479,1275 472,1295 471,1295 470,1275z"/>
    <path d="M1440,1320z M0,0z M1097,949C1073,935 1050,887 1050,850 1050,822 1052,820 1088,820 1118,821 1122,823 1108,831 1085,844 1085,863 1110,885 1129,902 1131,902 1149,886 1176,862 1190,874 1190,921 1190,960 1190,960 1153,960 1132,960 1107,955 1097,949z"/>
    <path d="M1440,1320z M0,0z M1310,851C1310,796 1318,780 1346,780 1367,780 1369,783 1360,806 1354,820 1350,845 1350,861 1350,883 1345,890 1330,890 1313,890 1310,883 1310,851z"/>
    <path d="M1440,1320z M0,0z M608,809C585,792 580,781 580,746 580,692 603,669 665,663 701,658 710,660 710,673 710,682 698,691 681,695 651,701 627,722 617,752 613,763 615,767 624,764 631,761 643,766 650,775 665,793 691,795 708,778 717,769 720,773 720,798 720,829 719,830 678,830 651,829 625,822 608,809z"/>
    <path d="M1440,1320z M0,0z M20,575C20,541 25,528 40,520 58,511 60,512 60,535 60,549 54,563 46,566 38,569 35,581 38,596 40,610 38,620 31,620 25,620 20,602 20,575z"/>
    <path d="M1440,1320z M0,0z M30,495C30,486 39,480 51,480 69,480 70,482 60,495 53,503 44,510 39,510 34,510 30,503 30,495z"/>
    <path d="M1440,1320z M0,0z M1254,468C1227,426 1210,382 1210,358 1210,313 1220,320 1285,415 1308,449 1314,422 1296,365 1287,334 1269,303 1255,291 1222,266 1224,260 1265,260 1289,260 1300,265 1300,275 1300,283 1304,290 1309,290 1323,290 1352,396 1348,437 1345,474 1344,475 1303,478 1277,480 1259,476 1254,468z"/>
    <path d="M1440,1320z M0,0z M362,413C364,404 378,393 394,389 430,379 430,379 419,408 409,435 356,441 362,413z"/>
    <path d="M1440,1320z M0,0z M453,400C438,378 446,350 466,350 475,350 480,362 480,385 480,424 471,429 453,400z"/>
    <path d="M1440,1320z M0,0z M1000,345C1000,321 1005,310 1015,310 1023,310 1030,317 1030,325 1030,333 1040,348 1052,360L1074,380 1037,380C1001,380,1000,379,1000,345z"/>
    <path d="M1440,1320z M0,0z M432,310C419,299 402,294 395,297 385,300 380,295 380,281 380,265 386,260 405,260 426,260 430,255 430,231L430,202 399,217C383,225 351,235 328,237 289,243 288,242 301,221 309,210 330,195 348,189 366,183 398,157 421,130 452,93 470,81 500,76 552,68 590,50 590,33 590,17 595,16 533,40 504,51 480,57 480,52 480,41 550,18 590,16 623,15 625,17 625,49 625,79 621,85 590,95 563,104 554,113 552,134 549,157 546,159 534,149 513,132 480,166 477,206 475,231 478,235 498,233 515,231 520,235 520,255 520,276 515,280 491,280 467,280 461,285 458,304 455,328 455,328 432,310z"/>
    <path d="M1440,1320z M0,0z M405,80C408,75 421,70 433,71 454,71 454,72 435,80 407,92 398,92 405,80z"/>
    <path d="M1440,1320z M0,0z M584,1304C579,1303 559,1299 539,1296 511,1291 499,1282 483,1252 471,1232 445,1201 425,1183 396,1157 391,1146 396,1126 403,1096 391,1093 355,1116 336,1128 330,1129 330,1119 330,1112 318,1093 303,1078 286,1060 271,1029 264,997 258,968 248,932 241,915 235,899 228,864 225,838 219,788 199,775 172,802 150,824 137,795 139,725 140,688 144,640 149,617 154,594 161,544 165,506 169,467 183,413 196,384 209,355 220,322 220,311 220,289 312,206 350,195 364,191 387,176 402,162 418,148 430,142 430,148 430,155 441,160 454,160 477,160 478,162 470,192 459,230 474,257 496,239 507,230 510,233 510,254 510,276 506,280 480,280 456,280 450,284 450,303 449,323 448,324 436,308 418,283 406,285 365,321 318,362 320,395 368,395 387,396 404,392 406,388 420,366 427,384 417,416 409,443 402,450 388,447 378,444 370,445 370,449 370,452 360,466 347,480 335,494 319,517 313,533 302,556 294,560 260,560L220,560 219,508C219,463 217,459 209,480 203,493 200,524 202,549L205,593 276,591C359,588,358,588,367,693L373,760 333,760C312,760 289,755 283,749 274,740 274,747 280,773 284,793 294,816 303,824 311,832 320,854 324,873 327,892 341,917 355,930 378,952 381,952 398,937 422,915 497,915 521,936 537,950 542,947 586,900 613,871 636,845 637,842 639,838 623,826 602,815 571,798 564,789 562,759 558,709 603,660 654,660 695,660 704,684 668,696 636,705 610,730 610,750 610,760 627,775 650,786 672,796 690,811 690,818 690,824 699,830 710,830 725,830 733,841 742,875 753,915 757,920 783,920 820,920 840,941 840,979 840,1016 815,1022 806,988 799,960 746,923 702,914 677,909 661,913 630,934 582,966 562,998 585,1006 604,1014 653,994 676,969 692,951 693,951 722,975 738,989 762,1003 776,1006 789,1009 800,1018 800,1026 800,1045 736,1044 716,1025 695,1003 693,1006 699,1053L705,1095 788,1098C855,1100 871,1098 876,1085 884,1064 1030,1063 1030,1083 1030,1099 1061,1130 1077,1130 1083,1130 1107,1113 1131,1091 1155,1070 1189,1046 1207,1036 1246,1016 1305,899 1316,821 1320,793 1326,770 1329,770 1360,770 1372,546 1345,470 1328,423 1325,350 1339,350 1369,350 1393,467 1394,615 1395,740 1394,747 1367,791 1347,825 1341,845 1346,867 1364,958 1224,1174 1133,1196 1117,1200 1063,1225 1011,1252 929,1294 910,1300 861,1299 830,1298 757,1300 699,1302 641,1304 589,1305 584,1304z M290,342C290,333 299,314 310,300 331,273 336,250 320,250 315,250 310,255 310,262 310,268 301,283 290,295 279,307 265,331 260,348 252,378 253,379 271,370 281,364 290,352 290,342z"/>
    <path d="M1440,1320z M0,0z M300,1216C248,1189 145,1085 130,1044 99,965 169,997 219,1085 235,1114 263,1149 281,1164 310,1189 356,1241 348,1240 346,1239 325,1229 300,1216z"/>
    <path d="M1440,1320z M0,0z M1097,959C1073,945 1050,897 1050,860 1050,834 1054,830 1077,830 1097,830 1101,833 1093,841 1078,856 1101,905 1131,921 1157,935 1167,926 1149,904 1137,890 1138,888 1155,891 1170,894 1176,905 1178,933 1181,969 1180,970 1148,970 1130,970 1107,965 1097,959z"/>
    <path d="M1440,1320z M0,0z M20,788C8,732 16,527 30,535 38,540 44,840 36,840 34,840 27,816 20,788z"/>
    <path d="M1440,1320z M0,0z M896,538C893,525 890,490 890,460 890,374 897,360 936,360 959,360 970,365 970,375 970,383 964,387 956,384 931,375 914,451 929,501 938,529 946,540 956,536 964,533 970,537 970,545 970,555 959,560 936,560 910,560 901,555 896,538z"/>
    <path d="M1440,1320z M0,0z M380,515C380,471 401,469 417,511 432,549 451,545 464,502 476,459 500,460 500,504 500,535 497,538 463,544 387,556 380,554 380,515z"/>
    <path d="M1440,1320z M0,0z M30,502C30,498 42,454 56,405 105,233 159,171 331,82 450,21 565,-3 627,19 645,26 665,28 671,25 677,21 715,16 756,15 828,12 831,12 828,33 825,52 818,55 775,57 748,58 695,64 658,71 587,84 534,76 578,59 601,50 607,35 591,26 586,23 549,34 508,50 468,67 413,85 385,91 327,102 293,124 207,207 138,273 121,301 89,410 77,451 62,491 57,498 46,511 30,514 30,502z"/>
    <path d="M1440,1320z M0,0z M1123,143C1111,139 1104,90 1115,90 1128,90 1177,120 1189,134 1201,148 1198,150 1169,149 1150,149 1129,146 1123,143z"/>
    <path d="M1440,1320z M0,0z M440,124C440,102 464,80 490,80 514,80 518,83 513,98 509,107 502,118 496,122 483,131 440,133 440,124z"/>
    <path d="M1440,1320z M0,0z M1153,911C1147,901 1145,889 1150,884 1154,879 1160,864 1162,850 1166,814 1128,811 1095,844 1062,877 1060,877 1060,839 1060,776 1153,745 1198,793 1223,819 1229,897 1208,918 1190,936 1166,933 1153,911z"/>
    <path d="M1440,1320z M0,0z M719,761C745,724 746,700 720,693 709,690 700,681 700,673 700,663 710,660 738,662 774,665 775,666 778,707 782,764 767,790 729,790L699,790 719,761z"/>
    <path d="M1440,1320z M0,0z M1236,424C1233,415 1230,400 1230,389 1230,377 1223,370 1210,370 1184,370 1168,338 1172,292L1175,255 1233,252 1290,249 1290,286 1290,324 1270,302C1244,274 1232,274 1228,303 1223,328 1246,380 1261,380 1267,380 1268,385 1265,390 1262,396 1263,400 1267,400 1272,400 1276,409 1276,420 1276,444 1245,447 1236,424z"/>
    <path d="M1440,1320z M0,0z M340,420C340,415 347,410 355,410 363,410 370,405 370,399 370,393 377,390 385,393 393,397 402,395 405,390 418,369 429,382 418,405 409,424 399,430 373,430 355,430 340,426 340,420z"/>
    <path d="M1440,1320z M0,0z M1315,410C1311,404 1307,388 1304,375 1301,355 1304,350 1320,350 1336,350 1340,357 1340,385 1340,419 1328,431 1315,410z"/>
    <path d="M1440,1320z M0,0z M454,398C449,391 447,373 448,357 449,342 444,319 435,307 415,278 416,270 440,270 451,270 460,263 460,254 460,246 464,242 470,245 480,251 560,203 560,190 560,186 551,171 539,157L519,130 497,151 475,171 472,144C470,129 474,113 482,109 500,97 543,98 576,110 602,120 603,122 597,182 591,249 578,267 528,277 502,282 500,286 500,329 499,388 472,428 454,398z"/>
    <path d="M1440,1320z M0,0z M1043,403C1029,400 1020,391 1020,379 1020,369 1013,360 1005,360 995,360 990,350 990,326 990,267 997,260 1052,260 1120,260 1142,284 1138,355 1135,405 1135,405 1100,406 1081,407 1055,406 1043,403z M1096,365C1105,343 1092,303 1075,296 1031,280 1012,335 1053,363 1081,383 1089,384 1096,365z"/>
    <path d="M1440,1320z M0,0z M1003,180C975,163,970,155,970,120L970,80 1015,80C1083,80,1110,102,1110,156L1110,200 1073,200C1052,200,1020,191,1003,180z M1050,130C1023,109 1010,105 1010,118 1010,133 1034,150 1055,150 1074,150 1073,148 1050,130z"/>
    <path d="M1440,1320z M0,0z M589,1304C554,1298 532,1291 540,1287 590,1268 632,1259 651,1265 684,1276 746,1273 802,1259 841,1248 855,1248 871,1258 882,1265 900,1268 910,1265 921,1262 938,1263 947,1269 963,1277 962,1280 935,1291 893,1309 666,1317 589,1304z"/>
    <path d="M1440,1320z M0,0z M298,1214C271,1200 260,1180 279,1180 292,1180 336,1217 330,1223 327,1226 313,1222 298,1214z"/>
    <path d="M1440,1320z M0,0z M1045,1161C1029,1151 1011,1134 1005,1121 997,1103 988,1099 955,1102 933,1103 910,1111 903,1120 894,1132 869,1135 782,1135 721,1135 674,1132 677,1128 679,1123 677,1120 673,1120 668,1120 666,1105 668,1086 672,1056 668,1050 641,1036 624,1027 610,1017 610,1013 610,1010 613,1009 616,1013 619,1016 633,1009 647,997 674,973 710,957 710,968 710,972 723,983 739,993 818,1040 839,987 761,939 731,920 709,898 706,884 702,871 695,860 690,860 677,860 587,956 575,983 569,996 555,1005 543,1006 530,1006 522,1005 524,1002 531,996 475,950 461,950 455,950 431,963 408,980L367,1010 334,972C316,952 298,920 294,902 291,884 281,863 273,855 265,847 252,815 244,783 236,752 227,724 225,722 223,720 212,723 201,730 184,739 179,738 174,725 166,705 197,670 222,670 246,670 292,694 309,714 331,740 339,732 334,693 326,628 323,623 286,625 268,626 248,630 243,633 238,636 220,636 204,631 176,624 175,622 172,547 170,481 173,461 198,403 214,365 230,323 234,308 241,276 321,204 359,195 376,191 401,171 424,139 447,110 473,87 489,84 503,81 523,76 533,73 545,70 550,74 550,89 550,120 540,139 526,134 505,126 458,189 462,219 464,240 470,245 493,245 515,244 520,249 520,267 520,283 514,290 500,290 489,290 480,297 480,305 480,319 477,319 450,305 426,292 420,283 420,255 420,219 411,207 394,218 379,228 360,266 360,287 360,297 351,316 340,330 329,344 320,363 320,372 320,382 312,394 301,399 269,417 233,530 260,530 266,530 276,518 283,502 289,487 305,464 317,450 330,436 340,422 340,418 340,413 346,410 353,410 359,410 378,403 394,395 422,380 422,380 415,408 411,423 402,439 394,443 386,447 380,455 380,461 380,466 370,484 359,499 339,526 339,530 354,557 363,572 379,610 390,642 402,673 417,704 425,710 434,718 440,740 440,766 440,799 435,812 420,820 389,836 406,850 456,850L500,850 500,811C500,778 507,767 545,731 570,708 590,686 590,681 590,669 616,660 652,660 674,660 681,664 678,677 676,686 666,694 655,696 644,698 625,712 612,727L590,755 611,773C647,802,678,805,704,781L727,759 733,800C739,845 777,910 798,910 804,910 810,921 810,935 810,953 815,960 830,960 841,960 850,967 850,975 850,983 855,990 860,990 866,990 880,1000 892,1012 912,1032 923,1033 1008,1031 1084,1029 1105,1032 1120,1045 1138,1061 1141,1060 1183,1026 1241,978 1300,892 1300,853 1300,817 1326,750 1340,750 1346,750 1350,741 1350,730 1350,717 1357,710 1370,710 1397,710 1395,731 1365,788 1351,814 1340,850 1340,868 1340,886 1324,934 1305,975 1278,1031 1261,1054 1237,1066 1219,1075 1188,1098 1168,1116 1148,1134 1119,1155 1103,1163 1078,1176 1071,1175 1045,1161z"/>
    <path d="M1440,1320z M0,0z M1070,938C1059,920 1050,890 1050,873 1050,846 1054,840 1071,840 1082,840 1088,844 1085,850 1077,863 1107,917 1129,930 1148,940 1170,926 1156,913 1149,906 1180,881 1198,880 1214,880 1214,942 1198,958 1191,965 1164,970 1138,970 1094,970 1088,967 1070,938z"/>
    <path d="M1440,1320z M0,0z M17,757C7,731 8,658 19,641 33,619 41,677 32,730 26,763 22,770 17,757z"/>
    <path d="M1440,1320z M0,0z M390,535C390,494,395,492,421,523L441,545 456,523C479,491,490,495,490,535L490,570 440,570 390,570 390,535z"/>
    <path d="M1440,1320z M0,0z M1350,512C1350,486 1348,485 1306,488 1270,491 1260,488 1246,469 1225,439 1224,380 1245,380 1253,380 1262,391 1266,405 1274,437 1297,457 1311,443 1321,433 1315,396 1295,348 1289,333 1293,330 1314,330 1343,330 1347,337 1374,431 1396,509 1395,540 1370,540 1355,540 1350,533 1350,512z"/>
    <path d="M1440,1320z M0,0z M52,418C74,339 106,270 138,230 169,192 175,213 145,258 131,280 104,339 86,391 47,504 22,523 52,418z"/>
    <path d="M1440,1320z M0,0z M1140,135C1140,104,1151,103,1187,135L1215,159 1178,160C1144,160,1140,157,1140,135z"/>
    <path d="M1440,1320z M0,0z M560,78C560,56 712,14 758,23 774,26 792,24 797,19 810,6 860,18 860,35 860,46 828,53 598,87 569,91 560,89 560,78z"/>
    <path d="M1440,1320z M0,0z M370,71C370,57 476,20 517,20 563,20 552,30 477,58 415,81 370,86 370,71z"/>
    <path d="M1440,1320z M0,0z M16,747C11,738 12,695 16,652 24,582 25,579 28,623 33,697 26,768 16,747z"/>
    <path d="M1440,1320z M0,0z M973,505C979,486 989,470 997,470 1005,470 1010,483 1010,505 1010,535 1007,540 986,540 963,540 962,538 973,505z"/>
    <path d="M1440,1320z M0,0z M462,421C446,369 447,360 469,360 489,360 500,385 500,433 500,474 475,466 462,421z"/>
    <path d="M1440,1320z M0,0z M972,420C963,382 963,380 986,380 1007,380 1010,384 1010,420 1010,447 1006,460 996,460 988,460 978,442 972,420z"/>
    <path d="M1440,1320z M0,0z M1053,107C1010,86 993,50 1026,50 1047,50 1160,110 1160,121 1160,137 1095,129 1053,107z"/>
    <path d="M1440,1320z M0,0z M590,1299C590,1291 610,1289 658,1294 695,1298 758,1296 798,1290 871,1280 913,1286 874,1301 842,1314 590,1312 590,1299z"/>
    <path d="M1440,1320z M0,0z M1105,1097C1088,1070 1078,1064 1040,1062 1015,1060 978,1063 958,1069 922,1080 870,1068 870,1049 870,1044 861,1036 850,1030 834,1021 826,1023 808,1040 796,1051 776,1060 762,1060 743,1060 739,1055 742,1038 744,1019 751,1015 779,1015 798,1015 815,1009 817,1002 820,996 797,966 766,936 735,907 710,876 710,867 710,842 691,837 665,854 633,875 620,874 620,852 620,829 639,810 662,810 672,810 690,799 702,785 727,756 740,753 740,778 741,825 793,920 819,920 825,920 830,925 830,931 830,943 839,951 900,994 931,1016 940,1018 975,1010 997,1005 1059,998 1112,995L1209,988 1252,935C1324,845 1361,871 1295,965 1265,1007 1140,1131 1128,1130 1127,1129 1116,1115 1105,1097z"/>
    <path d="M1440,1320z M0,0z M1082,968C1068,954 1066,890 1079,890 1084,890 1095,901 1104,915 1123,944 1152,947 1171,923 1179,913 1180,909 1173,913 1167,917 1159,916 1156,911 1150,902 1172,890 1196,890 1205,890 1210,901 1210,925 1210,949 1205,960 1195,960 1187,960 1180,965 1180,970 1180,984 1096,982 1082,968z"/>
    <path d="M1440,1320z M0,0z M364,905C365,897 369,888 372,885 385,871 366,841 338,831 304,819 267,782 273,766 279,750 319,757 347,780 366,795 377,797 391,789 415,777 415,764 391,734 380,720 364,685 354,657 345,628 329,593 319,578 294,543 295,520 323,479 336,460 349,437 353,428 356,418 366,410 373,410 381,410 393,403 400,395 418,373 433,376 420,399 409,420 406,499 416,524 427,552 458,543 465,510 474,467 500,471 500,515 500,534 496,550 490,550 485,550 480,557 480,565 480,573 471,580 460,580 449,580 440,585 440,590 440,596 429,600 416,600 393,600 392,602 401,629 407,645 422,668 436,681 449,693 460,711 460,720 460,729 463,739 466,742 473,749 594,682 598,669 600,664 617,660 636,660 663,660 670,664 670,680 670,691 665,697 658,695 642,689 637,693 576,758 529,807 527,811 540,835 559,870 542,885 486,881 456,879 432,885 409,899 369,924 361,925 364,905z"/>
    <path d="M1440,1320z M0,0z M1300,841C1300,802 1309,780 1325,780 1343,780 1352,700 1348,585L1345,495 1313,492C1289,490 1280,484 1280,470 1280,459 1287,453 1298,454 1313,455 1315,446 1312,383 1310,339 1313,310 1319,310 1333,310 1339,322 1363,403 1391,499 1395,746 1369,776 1360,787 1347,812 1339,833 1323,877 1300,882 1300,841z"/>
    <path d="M1440,1320z M0,0z M185,493C192,436 211,400 235,400 244,400 246,414 243,448 236,508 220,544 196,548 179,552 178,547 185,493z"/>
    <path d="M1440,1320z M0,0z M890,505C890,483 895,470 903,470 911,470 921,486 927,505 938,538 937,540 914,540 893,540 890,535 890,505z"/>
    <path d="M1440,1320z M0,0z M56,416C59,395,70,361,81,341L102,305 95,340C91,359,79,393,69,415L50,455 56,416z"/>
    <path d="M1440,1320z M0,0z M463,415C452,382 453,380 476,380 497,380 500,385 500,415 500,437 495,450 487,450 479,450 469,434 463,415z"/>
    <path d="M1440,1320z M0,0z M236,361C210,320 331,181 371,205 381,212 328,312 297,348 276,370 246,377 236,361z"/>
    <path d="M1440,1320z M0,0z M441,301C430,294 430,292 441,287 451,283 451,281 443,281 436,280 430,271 430,260 430,248 423,226 416,211 402,185 403,180 427,144 468,84 490,74 490,115 490,134 485,140 469,140 450,140 449,144 456,188 464,242 475,261 496,253 505,250 510,255 510,269 510,283 504,290 490,290 479,290 470,295 470,300 470,312 460,313 441,301z"/>
    <path d="M1440,1320z M0,0z M1000,70C1000,48 1020,44 1051,60 1081,76 1074,90 1035,90 1007,90 1000,86 1000,70z"/>
    <path d="M1440,1320z M0,0z M390,69C390,57 451,30 497,23 551,14 535,34 468,58 396,83 390,84 390,69z"/>
    <path d="M1440,1320z M0,0z M590,72C590,54 621,43 695,36 734,32 780,26 798,23 825,19 830,21 830,38 830,59 819,61 663,76 613,80 590,79 590,72z"/>
    <path d="M1440,1320z M0,0z M1163,936C1180,922 1186,909 1173,911 1150,915 1148,908 1168,894 1197,874 1196,849 1166,821 1142,798 1141,798 1116,816 1102,827 1087,845 1084,858 1074,894 1050,885 1050,845 1050,826 1054,810 1058,810 1063,810 1073,799 1080,785 1091,764 1101,760 1135,760 1197,760 1220,789 1220,866 1220,932 1209,950 1171,950 1147,949 1146,948 1163,936z"/>
    <path d="M1440,1320z M0,0z M694,805C705,797 710,790 706,790 702,790 710,776 725,759 761,716 755,695 705,693 683,692 657,691 648,691 622,690 626,661 653,655 666,651 699,650 726,652L775,655 778,711C782,781 756,820 707,820 677,819 676,819 694,805z"/>
    <path d="M1440,1320z M0,0z M1224,418C1220,405 1209,389 1199,382 1171,363 1150,316 1150,275L1150,240 1215,240C1266,240 1280,243 1280,255 1280,263 1287,270 1295,270 1303,270 1310,279 1310,290 1310,301 1315,310 1320,310 1326,310 1330,324 1330,340 1330,357 1335,370 1340,370 1346,370 1350,386 1350,405 1350,457 1325,446 1314,388 1306,349 1261,285 1240,282 1198,275 1194,297 1229,345 1270,402 1279,440 1251,440 1239,440 1228,431 1224,418z"/>
    <path d="M1440,1320z M0,0z M397,400C407,389 418,380 423,380 427,380 426,389 420,400 414,411 403,420 395,420 383,420 383,416 397,400z"/>
    <path d="M1440,1320z M0,0z M1043,414C1036,411 1030,400 1030,389 1030,377 1023,370 1010,370 992,370 990,363 990,316 990,256 996,250 1060,250 1081,250 1107,258 1119,268 1138,283 1141,293 1138,350L1135,415 1095,417C1073,418,1049,417,1043,414z M1108,357C1110,347 1104,328 1096,315 1066,269 1005,293 1030,340 1051,380 1102,391 1108,357z"/>
    <path d="M1440,1320z M0,0z M453,384C450,376 452,364 459,357 477,339 472,314 448,302 435,296 431,291 439,291 450,290 450,287 440,275 429,262 432,260 454,260 502,260 557,225 564,189 571,150 567,143 530,135 489,126 491,97 534,76 591,49 598,53 605,122 614,207 596,260 553,279 524,292 520,299 520,330 520,383 469,425 453,384z"/>
    <path d="M1440,1320z M0,0z M1008,192C1001,182 987,171 977,167 963,162 959,151 962,118 965,76 966,75 1003,72 1024,70 1040,73 1040,79 1040,85 1051,90 1064,90 1102,90 1121,116 1118,164L1115,205 1068,208C1032,210,1019,207,1008,192z M1080,156C1080,140 1038,110 1015,110 990,110 998,129 1033,150 1071,174 1080,175 1080,156z"/>
    <path d="M1440,1320z M0,0z M798,1303C810,1301 830,1301 843,1303 855,1305 845,1307 820,1307 795,1307 785,1305 798,1303z"/>
    <path d="M1440,1320z M0,0z M876,1030C808,979 736,901 726,868 719,848 707,834 693,830 671,825 672,824 705,791 724,772 740,753 740,749 740,744 745,740 750,740 756,740 760,754 760,770 760,787 764,800 770,800 775,800 783,814 788,831 795,860 801,864 865,881 915,894 941,906 956,925 977,951 978,952 1009,936 1038,921 1040,916 1040,865L1040,810 1077,810C1112,810 1113,810 1095,830 1079,848 1078,854 1090,890 1108,945 1124,957 1155,940 1169,933 1180,921 1180,913 1180,906 1185,900 1190,900 1196,900 1200,907 1200,915 1200,938 1238,933 1265,905 1279,892 1290,872 1290,860 1290,849 1295,840 1300,840 1306,840 1310,826 1310,809 1310,770 1339,720 1362,720 1387,720 1384,747 1355,795 1340,818 1330,850 1330,872 1330,902 1320,921 1274,975 1227,1030 1215,1040 1197,1034 1185,1030 1166,1027 1155,1028 1144,1029 1112,1030 1084,1030 1056,1030 1011,1037 984,1045 920,1064 922,1064 876,1030z"/>
    <path d="M1440,1320z M0,0z M446,848C438,835 431,806 432,782 432,748 426,732 407,712 392,697 374,665 365,640 356,615 343,585 334,572 321,552 321,549 336,543 346,540 367,544 383,554 412,570 413,570 399,553 391,543 379,529 372,521 364,513 361,492 364,466 366,444 369,422 369,418 370,413 376,410 384,410 392,410 400,404 403,398 413,368 418,399 409,436 401,468 402,485 414,513 422,534 434,550 439,550 454,550 470,516 470,486 470,467 475,460 490,460 506,460 510,467 510,495 510,519 519,540 540,563 572,599 580,646 558,668 533,693 561,691 590,666 611,649 633,640 656,640 687,640 691,643 688,663 686,678 677,686 660,688 646,690 626,700 615,710 604,720 576,737 553,749 503,774 489,795 501,828 506,841 508,856 504,861 494,878 461,870 446,848z"/>
    <path d="M1440,1320z M0,0z M23,625C23,603 25,595 27,608 29,620 29,638 27,648 24,657 22,647 23,625z"/>
    <path d="M1440,1320z M0,0z M1336,564C1333,555 1330,537 1330,524 1330,504 1325,500 1299,500 1262,500 1240,480 1240,446 1240,430 1234,420 1225,420 1214,420 1210,409 1210,384 1210,336 1229,343 1258,403 1282,454 1307,472 1321,449 1331,433 1326,414 1295,343L1271,290 1295,290C1308,290 1324,298 1329,308 1347,342 1380,488 1380,534 1380,572 1377,580 1361,580 1351,580 1339,573 1336,564z"/>
    <path d="M1440,1320z M0,0z M200,471C200,454 205,438 210,435 216,431 220,443 220,464 220,484 216,500 210,500 205,500 200,487 200,471z"/>
    <path d="M1440,1320z M0,0z M890,415C890,385 893,380 914,380 937,380 938,382 927,415 921,434 911,450 903,450 895,450 890,437 890,415z"/>
    <path d="M1440,1320z M0,0z M50,433C50,409 72,350 81,350 91,350 88,366 69,418 61,439 50,448 50,433z"/>
    <path d="M1440,1320z M0,0z M462,408C450,374 459,350 486,350 496,350 500,363 500,395 500,449 480,456 462,408z"/>
    <path d="M1440,1320z M0,0z M246,341C235,324 257,284 295,251 315,233 334,220 336,222 338,224 325,254 307,288 277,346 259,362 246,341z"/>
    <path d="M1440,1320z M0,0z M463,294C440,276 430,260 430,241 430,226 425,209 419,203 391,175 459,86 501,92 532,96 536,122 508,135 475,149 446,213 460,240 468,255 478,259 500,255 525,251 530,253 530,271 530,288 509,320 498,320 496,320 480,308 463,294z"/>
    <path d="M1440,1320z M0,0z M557,272C541,255 541,250 554,224 562,208 571,187 574,178 582,153 635,155 661,181 676,196 680,211 678,243L675,285 624,288C585,290,570,287,557,272z"/>
    <path d="M1440,1320z M0,0z M1073,122C1032,102 1020,91 1020,73 1020,53 1023,51 1047,61 1095,79 1190,133 1190,141 1190,159 1123,148 1073,122z"/>
    <path d="M1440,1320z M0,0z M580,76C580,57 602,50 693,40 735,35 786,28 805,24 836,19 840,20 840,38 840,61 837,62 697,80 594,93 580,93 580,76z"/>
    <path d="M1440,1320z M0,0z M400,60C400,52 489,20 512,20 536,20 514,38 473,53 419,72 400,74 400,60z"/>
    <path d="M1440,1320z M0,0z M1176,923C1197,881 1194,837 1167,812 1154,800 1141,790 1138,790 1128,790 1070,851 1070,861 1070,866 1066,870 1060,870 1039,870 1050,805 1075,777 1111,739 1161,740 1201,779 1226,804 1230,816 1230,863 1230,936 1224,950 1190,950 1162,950 1161,949 1176,923z"/>
    <path d="M1440,1320z M0,0z M714,805C711,797 715,783 724,775 744,755 754,716 746,694 741,681 731,679 694,684 663,688 651,686 656,679 660,671 656,672 641,679 623,689 620,688 620,672 620,662 625,649 632,642 649,625 725,627 760,645 786,659 790,666 790,704 790,758 782,780 764,780 756,780 750,789 750,800 750,823 722,827 714,805z"/>
    <path d="M1440,1320z M0,0z M1250,475C1250,467 1246,460 1241,460 1236,460 1228,450 1224,438 1220,425 1204,400 1189,382L1160,349 1160,379C1160,415 1138,430 1085,430 1031,430 980,377 980,322 980,255 985,250 1051,250 1103,250 1110,252 1110,270 1110,304 1138,293 1142,258L1145,225 1202,225C1251,225 1263,229 1289,254 1320,283 1350,355 1350,397 1350,434 1327,422 1315,378 1313,373 1311,367 1310,363 1309,358 1308,352 1309,348 1309,343 1305,340 1298,340 1292,340 1289,337 1293,334 1296,331 1287,315 1273,299 1254,278 1238,270 1213,270 1195,270 1180,272 1180,275 1180,289 1210,337 1229,354 1240,364 1247,377 1244,381 1241,386 1243,390 1248,390 1254,390 1261,402 1264,416 1272,448 1296,474 1310,465 1315,462 1320,466 1320,474 1320,486 1310,490 1285,490 1261,490 1250,485 1250,475z M1108,347C1111,318 1106,308 1086,295 1025,255 995,317 1051,365 1090,397 1104,393 1108,347z"/>
    <path d="M1440,1320z M0,0z M462,399C450,381 451,375 471,354 493,331 491,300 468,300 459,300 460,297 470,290 480,284 481,280 473,280 466,280 460,275 460,269 460,263 469,261 481,265 493,269 500,268 497,263 494,258 500,253 511,253 541,250 558,232 569,193 584,140 575,128 523,132 485,135 480,133 482,116 485,97 551,65 610,55 635,51 640,53 640,70 640,81 634,93 627,96 617,100 614,115 618,150 622,195 621,198 603,194 576,187 564,217 585,240 599,255 598,258 583,272 573,280 557,290 548,293 536,297 530,310 530,331 530,360 497,420 482,420 478,420 469,411 462,399z"/>
    <path d="M1440,1320z M0,0z M992,190C953,162,950,156,950,115L950,70 1001,70C1097,70 1152,130 1124,204 1113,233 1039,225 992,190z M1084,171C1095,153 1078,131 1042,117 989,95 978,113 1020,150 1056,180 1075,186 1084,171z"/>
    <path d="M1440,1320z M0,0z M433,152C433,142 442,126 452,116 470,97 470,97 470,133 470,163 466,170 451,170 438,170 432,164 433,152z"/>
    <path d="M1440,1320z M0,0z M933,964C910,935 892,926 835,911 775,895 765,889 759,866 755,851 742,832 730,822L708,804 744,747C778,694 783,690 818,690 852,690 857,694 868,723 875,741 880,770 880,787L880,818 948,822C1002,825 1019,822 1036,808 1055,791 1110,783 1110,797 1110,801 1100,814 1088,827 1070,847 1068,853 1078,875 1094,909 1078,940 1027,974 977,1008 967,1007 933,964z"/>
    <path d="M1440,1320z M0,0z M1164,965C1161,957 1168,939 1179,924 1191,909 1200,891 1200,883 1200,875 1208,870 1218,871 1250,874 1260,870 1275,847 1325,769 1321,521 1268,504 1249,498 1220,451 1220,425 1220,417 1216,410 1210,410 1205,410 1200,394 1200,374 1200,342 1202,339 1216,351 1224,358 1242,385 1256,411 1285,469 1297,477 1318,456 1332,442 1333,434 1322,393 1315,366 1299,329 1286,310 1272,289 1266,268 1269,257 1275,240 1277,241 1297,262 1342,309 1366,425 1377,643 1381,728 1379,745 1362,773 1351,790 1335,832 1326,865 1310,926 1283,960 1249,960 1239,960 1228,965 1225,970 1216,985 1170,982 1164,965z"/>
    <path d="M1440,1320z M0,0z M447,739C435,696 438,690 468,696 494,701 499,698 517,662L537,621 511,596C490,574 483,554 474,482 464,403 465,392 482,362 505,320 505,303 480,288 469,281 460,272 460,269 460,259 524,264 532,275 536,281 537,333 533,392L527,499 566,502 605,505 605,572 605,639 653,633C691,628 700,630 700,643 700,651 689,661 676,664 662,667 639,681 623,694 593,719 552,732 506,731 490,731 471,738 465,747 454,761 452,760 447,739z"/>
    <path d="M1440,1320z M0,0z M23,715C23,693 25,685 27,698 29,710 29,728 27,738 24,747 22,737 23,715z"/>
    <path d="M1440,1320z M0,0z M900,385C900,352 902,350 935,350 963,350 970,354 970,370 970,383 965,387 956,384 948,381 937,387 930,399 914,431 900,424 900,385z"/>
    <path d="M1440,1320z M0,0z M566,328C543,290 538,254 555,240 568,230 574,230 588,244 609,262 636,265 645,250 655,234 631,201 606,194 589,190 583,182 584,164 585,133 615,132 661,163 689,182 696,193 698,227 700,254 694,283 680,309 661,347 656,350 620,350 590,350 577,345 566,328z"/>
    <path d="M1440,1320z M0,0z M980,295C980,262 982,260 1015,260 1034,260 1050,265 1050,270 1050,276 1043,280 1035,280 1027,280 1018,291 1014,305 1004,344 980,336 980,295z"/>
    <path d="M1440,1320z M0,0z M424,196C418,181 455,100 468,100 472,100 492,96 513,91 544,83 550,85 550,99 550,109 538,120 518,125 495,132 479,147 465,172 444,212 433,219 424,196z"/>
    <path d="M1440,1320z M0,0z M1143,163C1131,159 1124,110 1135,110 1148,110 1197,140 1209,154 1221,168 1218,170 1189,169 1170,169 1149,166 1143,163z"/>
    <path d="M1440,1320z M0,0z M1030,100C1030,95 1021,90 1010,90 995,90 990,83 990,65 990,43 992,41 1015,50 1062,68 1100,90 1100,100 1100,106 1084,110 1065,110 1046,110 1030,106 1030,100z"/>
    <path d="M1440,1320z M0,0z M590,81C590,64 622,53 695,46 734,42 781,34 802,28 844,16 910,25 910,43 910,51 875,60 808,69 654,90 590,93 590,81z"/>
    <path d="M1440,1320z M0,0z M1200,887C1200,843 1182,807 1151,790 1136,783 1124,789 1089,821 1045,861 1045,861 982,855 933,851 913,853 891,866 866,881 858,881 831,870 798,857 775,826 785,810 789,803 799,804 812,811 845,829 856,808 840,760 825,713 817,711 794,745 768,785 747,778 755,731 761,694 759,690 731,676 692,655 672,656 625,680 578,704 576,704 556,684 542,670 542,665 560,630 594,563 583,517 539,540 527,547 514,548 509,543 502,536 496,380 501,325 502,314 501,299 499,291 497,283 505,272 516,265 528,259 545,248 554,241 567,230 571,231 575,246 586,281 605,313 617,317 632,322 673,243 666,224 663,216 645,201 627,190 608,179 588,159 582,145 575,129 562,120 548,120 535,120 519,116 512,111 469,84 774,25 908,34 983,39 1003,45 1095,90 1198,141 1256,192 1296,267 1319,313 1313,327 1282,297 1248,264 1193,243 1178,258 1168,268 1188,315 1222,359 1232,373 1249,402 1259,426 1270,449 1287,471 1298,474 1353,492 1361,774 1309,871 1300,889 1231,930 1210,930 1205,930 1200,911 1200,887z M709,589C701,573 695,571 687,579 678,588 679,593 690,600 714,616 721,611 709,589z M981,494C994,468 999,445 994,442 989,438 979,423 973,408 958,374 935,372 926,403 911,459 925,540 950,540 956,540 970,519 981,494z M1111,390C1158,365 1102,275 1044,282 1000,287 1000,322 1043,365 1082,404 1083,404 1111,390z M944,160C929,135 924,134 876,138 848,140 816,148 804,155 793,162 770,170 754,173 729,176 730,177 763,179 800,180 800,180 800,223 800,246 803,281 806,301L812,337 886,262C959,187,960,187,944,160z M1143,197C1140,192 1132,201 1124,216 1113,237 1112,246 1122,258 1133,270 1136,268 1142,239 1145,221 1146,202 1143,197z M1093,178C1104,147 1048,100 1000,100 967,100 977,128 1022,160 1066,192 1086,197 1093,178z"/>
    <path d="M1440,1320z M0,0z M23,670C23,645 25,635 27,648 29,660 29,680 27,693 25,705 23,695 23,670z"/>
    <path d="M1440,1320z M0,0z M700,649C652,624 640,612 640,590 640,570 686,510 701,510 720,510 770,605 768,635 764,671 748,674 700,649z"/>
    <path d="M1440,1320z M0,0z M978,471C980,438 977,403 971,392 963,377 965,369 979,356 996,340 999,340 1014,355 1023,364 1030,384 1030,400 1030,416 1035,440 1041,454 1051,476 1049,482 1024,504 981,542 975,537 978,471z"/>
    <path d="M1440,1320z M0,0z M750,405C750,402 758,388 767,374 781,352 782,343 771,315 764,295 762,266 766,245 772,210 772,210 738,210 716,210 696,203 685,190 659,161 672,140 717,140 739,140 766,131 779,121 796,108 814,104 835,107 856,110 881,105 908,91 931,79 961,70 975,70L1000,70 980,90 959,111 980,140C994,160 999,177 994,194 987,224 828,388 793,401 766,411 750,413 750,405z M875,250L914,210 868,210C823,210 822,211 818,245 816,264 819,282 825,284 830,286 835,289 835,289 836,290 854,272 875,250z"/>
    <path d="M1440,1320z M0,0z M1155,364C1145,349 1120,318 1098,295 1065,258 1061,249 1069,227 1074,213 1084,199 1089,195 1110,183 1100,142 1073,122 1057,111 1048,98 1052,94 1065,82 1116,110 1155,150 1187,183 1192,193 1185,217 1174,260 1176,292 1191,327 1203,356 1202,362 1189,376 1175,390 1171,389 1155,364z"/>
    <path d="M1440,1320z M0,0z M1130,318C1101,278 1099,271 1105,220 1112,150 1125,137 1151,170 1166,189 1170,205 1166,234 1163,258 1167,285 1176,303 1191,332 1189,360 1171,360 1166,360 1147,341 1130,318z"/>
    <path d="M1440,1320z M0,0z M801,318C773,300 769,293 775,271 779,257 782,226 782,202 781,167 784,160 800,160 810,160 822,165 825,170 834,185 887,182 921,164 945,152 955,151 966,161 988,179 974,209 916,268 847,340 841,343 801,318z"/>
  </g>
</svg>
