<svg xmlns="http://www.w3.org/2000/svg" viewBox="0 0 68 68">
  <g fill="currentColor">
    <path d="M128,128z M0,0z M22.56,9.89C25.59,8.72 28.87,9.46 32.01,9.37 41.76,9.66 51.85,9.48 61.06,13.14 70.36,16.5 80.05,20.71 86.19,28.82 91.45,35.72 92.93,44.62 93.28,53.08 93.43,61.76 93.29,70.44 92.49,79.09 92.29,79.98 92.57,82 91,81.6 71.81,81.5 52.61,81.83 33.44,81.43 34.93,69.68 34.69,57.81 35.12,45.99 35.1,35.47 35.67,24.13 30.37,14.63 28.89,11.59 25.69,10.39 22.56,9.89 M36.73,57.96C36.75,59.82 36.75,61.67 36.75,63.53 41.63,63.57 46.5,63.6 51.38,63.48 52.52,68.08 53.37,72.74 54.26,77.4 60.58,77.53 66.91,77.38 73.23,77.48 74.18,72.86 75.15,68.23 76.06,63.6 80.96,63.49 85.87,63.57 90.77,63.58 90.78,61.69 90.8,59.79 90.82,57.9 81.91,47.19 72.7,36.73 63.85,25.96 54.82,36.64 45.68,47.22 36.73,57.96z"/>
    <path d="M128,128z M0,0z M36.73,57.96C45.68,47.22 54.82,36.64 63.85,25.96 72.7,36.73 81.91,47.19 90.82,57.9 90.8,59.79 90.78,61.69 90.77,63.58 85.87,63.57 80.96,63.49 76.06,63.6 75.15,68.23 74.18,72.86 73.23,77.48 66.91,77.38 60.58,77.53 54.26,77.4 53.37,72.74 52.52,68.08 51.38,63.48 46.5,63.6 41.63,63.57 36.75,63.53 36.75,61.67 36.75,59.82 36.73,57.96 M63.45,33.9C56.49,42.08 49.4,50.15 42.39,58.28 46.43,58.3 50.48,58.25 54.53,58.23 55.67,62.92 56.31,67.72 57.58,72.37 61.34,73.39 65.68,72.47 69.66,72.78 70.85,67.94 71.57,63 72.87,58.19 76.89,58.28 80.9,58.29 84.92,58.3 77.73,50.2 70.66,41.98 63.45,33.9z"/>
    <path d="M128,128z M0,0z M63.45,33.9C70.66,41.98 77.73,50.2 84.92,58.3 80.9,58.29 76.89,58.28 72.87,58.19 71.57,63 70.85,67.94 69.66,72.78 65.68,72.47 61.34,73.39 57.58,72.37 56.31,67.72 55.67,62.92 54.53,58.23 50.48,58.25 46.43,58.3 42.39,58.28 49.4,50.15 56.49,42.08 63.45,33.9z"/>
    <path d="M128,128z M0,0z M25.42,89.32C50.82,89.18 76.23,89.19 101.63,89.31 101.64,91.73 101.63,94.14 101.62,96.56 76.22,96.66 50.8,96.7 25.4,96.53 25.4,94.13 25.41,91.72 25.42,89.32z"/>
    <path d="M128,128z M0,0z M57.12,104.2C61.47,104.05 65.82,104.1 70.17,104.15 70.24,109.56 70.21,114.97 70.18,120.38 65.81,120.45 61.44,120.51 57.08,120.33 57.19,114.95 57.14,109.57 57.12,104.2z"/>
  </g>
</svg>
