<svg xmlns="http://www.w3.org/2000/svg" viewBox="0 0 68 68">
  <g fill="currentColor">
    <path d="M64,64z M0,0z M793.4,972L795,968 796,967 804,967 805,968 806.6,972 810,972 811,973 811,979 808,982 805,982 805,991 810,991 811,992 811,993 810,994 804,994 804,996 810,1002 809,1003 809,1011 791,1011 791,1003 790,1002 796,996 795,991 795,982 792,982 789,979 789,973 790,972 793.4,972z"/>
    <path d="M64,64z M0,0z M802,1002L802,1007.33C802,1007.7,801.701,1008,801.333,1008L798.667,1008C798.299,1008,798,1007.7,798,1007.33L798,1002 802,1002z M798,999L798,996C798,994.896 798.896,994 800,994 801.104,994 802,994.896 802,996L802,999 798,999z"/>
    <path d="M64,64z M0,0z M803,1002L810,1002 810,1018 790,1018 790,1002 797,1002 797,1009C797,1009.55,797.448,1010,798,1010L802,1010C802.552,1010,803,1009.55,803,1009L803,1002z M815,1007C814.448,1007,814,1006.55,814,1006L814,994 810,994 810,991 816,991C816.552,991,817,991.448,817,992L817,1004 820,1004C820.552,1004,821,1004.45,821,1005L821,1006C821,1006.55,820.552,1007,820,1007L815,1007z M797,999L793,999 793,990C793,989.448,793.448,989,794,989L806,989C806.552,989,807,989.448,807,990L807,999 803,999 803,995C803,993.344 801.656,992 800,992 798.344,992 797,993.344 797,995L797,999z M805,984L795,984 795,986 805,986 805,984z M807,973C807,971.896,806.104,971,805,971L795,971C793.896,971,793,971.896,793,973L793,981C793,981.552,793.448,982,794,982L806,982C806.552,982,807,981.552,807,981L807,973z M805,965L795,965 795,968 805,968 805,965z"/>
    <path d="M64,64z M0,0z M775.953,984.406C775.469,983.436 775,982.422 775,980 775,975 773.95,972 784,972L790,972 790,980C790,980 787,978 784,978 781,978 780,980 780,982L780,988C780,992,780,994,778,996L773,996C773,993.578,773.939,993.033,774.906,992.547L775.094,992.453C776.061,991.967 777,991.422 777,989 777,986.578 776.531,985.564 776.047,984.594L775.953,984.406z M810,972L816,972C826.05,972 825,975 825,980 825,985 823,984 823,989 823,994 827,991 827,996L822,996C820,994,820,992,820,988L820,982C820,980 819,978 816,978 813,978 810,980 810,980L810,972z"/>
  </g>
</svg>
